<?xml version="1.0" encoding="UTF-8"?>
<svg xmlns="http://www.w3.org/2000/svg" xmlns:xlink="http://www.w3.org/1999/xlink" width="6000" height="2998" viewBox="0 0 6000 2998">
<defs>
<clipPath id="clip-0">

</clipPath>
<clipPath id="clip-1">
<path clip-rule="evenodd" d="M 989.769531 1907.890625 L 977.089844 1921.109375 C 1003.980469 1962.441406 1036 1994.441406 1073.128906 2017.089844 L 1016.890625 2141.671875 L 1123.941406 2180.929688 L 1233.359375 2077.011719 C 1283.898438 2085.859375 1340.359375 2086.078125 1402.738281 2077.679688 L 1435.941406 2182.628906 L 1568.390625 2144.371094 L 1613.789062 2016.410156 C 1678.160156 1990.679688 1738.601562 1956.039062 1793.328125 1913.488281 L 1894.109375 1960.71875 L 2007.589844 1861.53125 L 1980.488281 1795.179688 L 1880.710938 1795.578125 L 1813.828125 1795.859375 C 1691.878906 1909.648438 1554.570312 1983.898438 1401.890625 2018.609375 C 1227.058594 2048.539062 1090.648438 2010.621094 992.675781 1904.859375 Z M 989.769531 1907.890625 "/>
</clipPath>
<linearGradient id="linear-pattern-0" gradientUnits="userSpaceOnUse" x1="0.0160587" y1="0" x2="0.980707" y2="0" gradientTransform="matrix(-0.00001756, -401.649, 401.649, -0.00001756, 1492.34, 2189.08)">
<stop offset="0" stop-color="rgb(51.40686%, 51.850891%, 51.96228%)" stop-opacity="1"/>
<stop offset="0.00390625" stop-color="rgb(52.487183%, 52.836609%, 52.89917%)" stop-opacity="1"/>
<stop offset="0.0078125" stop-color="rgb(53.579712%, 53.83606%, 53.849792%)" stop-opacity="1"/>
<stop offset="0.0117188" stop-color="rgb(54.499817%, 54.733276%, 54.721069%)" stop-opacity="1"/>
<stop offset="0.015625" stop-color="rgb(55.427551%, 55.641174%, 55.604553%)" stop-opacity="1"/>
<stop offset="0.0195313" stop-color="rgb(56.221008%, 56.50177%, 56.419373%)" stop-opacity="1"/>
<stop offset="0.0234375" stop-color="rgb(57.020569%, 57.373047%, 57.243347%)" stop-opacity="1"/>
<stop offset="0.0273437" stop-color="rgb(57.989502%, 58.320618%, 58.088684%)" stop-opacity="1"/>
<stop offset="0.03125" stop-color="rgb(58.966064%, 59.27887%, 58.946228%)" stop-opacity="1"/>
<stop offset="0.0351563" stop-color="rgb(59.873962%, 60.081482%, 59.805298%)" stop-opacity="1"/>
<stop offset="0.0390625" stop-color="rgb(60.786438%, 60.89325%, 60.673523%)" stop-opacity="1"/>
<stop offset="0.0429687" stop-color="rgb(61.703491%, 61.79657%, 61.561584%)" stop-opacity="1"/>
<stop offset="0.046875" stop-color="rgb(62.623596%, 62.709045%, 62.461853%)" stop-opacity="1"/>
<stop offset="0.0507813" stop-color="rgb(63.75885%, 63.800049%, 63.375854%)" stop-opacity="1"/>
<stop offset="0.0546875" stop-color="rgb(64.901733%, 64.906311%, 64.303589%)" stop-opacity="1"/>
<stop offset="0.0585937" stop-color="rgb(65.895081%, 65.815735%, 65.267944%)" stop-opacity="1"/>
<stop offset="0.0625" stop-color="rgb(66.893005%, 66.738892%, 66.249084%)" stop-opacity="1"/>
<stop offset="0.0664062" stop-color="rgb(67.881775%, 67.669678%, 67.184448%)" stop-opacity="1"/>
<stop offset="0.0703125" stop-color="rgb(68.876648%, 68.609619%, 68.135071%)" stop-opacity="1"/>
<stop offset="0.0742188" stop-color="rgb(69.723511%, 69.53125%, 69.061279%)" stop-opacity="1"/>
<stop offset="0.078125" stop-color="rgb(70.576477%, 70.46051%, 69.999695%)" stop-opacity="1"/>
<stop offset="0.0820312" stop-color="rgb(71.601868%, 71.434021%, 70.845032%)" stop-opacity="1"/>
<stop offset="0.0859375" stop-color="rgb(72.633362%, 72.419739%, 71.70105%)" stop-opacity="1"/>
<stop offset="0.0898438" stop-color="rgb(73.669434%, 73.25592%, 72.561646%)" stop-opacity="1"/>
<stop offset="0.09375" stop-color="rgb(74.710083%, 74.099731%, 73.434448%)" stop-opacity="1"/>
<stop offset="0.0976562" stop-color="rgb(75.569153%, 75.032043%, 74.380493%)" stop-opacity="1"/>
<stop offset="0.101563" stop-color="rgb(76.4328%, 75.975037%, 75.338745%)" stop-opacity="1"/>
<stop offset="0.105469" stop-color="rgb(77.490234%, 77.049255%, 76.261902%)" stop-opacity="1"/>
<stop offset="0.109375" stop-color="rgb(78.552246%, 78.134155%, 77.197266%)" stop-opacity="1"/>
<stop offset="0.113281" stop-color="rgb(79.589844%, 79.202271%, 78.259277%)" stop-opacity="1"/>
<stop offset="0.117187" stop-color="rgb(80.632019%, 80.281067%, 79.335022%)" stop-opacity="1"/>
<stop offset="0.121094" stop-color="rgb(81.547546%, 81.222534%, 80.439758%)" stop-opacity="1"/>
<stop offset="0.125" stop-color="rgb(82.4646%, 82.171631%, 81.559753%)" stop-opacity="1"/>
<stop offset="0.128906" stop-color="rgb(83.357239%, 83.088684%, 82.485962%)" stop-opacity="1"/>
<stop offset="0.132812" stop-color="rgb(84.251404%, 84.013367%, 83.421326%)" stop-opacity="1"/>
<stop offset="0.136719" stop-color="rgb(85.340881%, 85.00061%, 84.373474%)" stop-opacity="1"/>
<stop offset="0.140625" stop-color="rgb(86.434937%, 85.995483%, 85.334778%)" stop-opacity="1"/>
<stop offset="0.144531" stop-color="rgb(87.342834%, 86.949158%, 86.306763%)" stop-opacity="1"/>
<stop offset="0.148438" stop-color="rgb(88.252258%, 87.913513%, 87.289429%)" stop-opacity="1"/>
<stop offset="0.152344" stop-color="rgb(89.167786%, 88.88092%, 88.284302%)" stop-opacity="1"/>
<stop offset="0.15625" stop-color="rgb(90.083313%, 89.854431%, 89.28833%)" stop-opacity="1"/>
<stop offset="0.160156" stop-color="rgb(90.188599%, 90.119934%, 89.44397%)" stop-opacity="1"/>
<stop offset="0.164062" stop-color="rgb(90.292358%, 90.385437%, 89.598083%)" stop-opacity="1"/>
<stop offset="0.167969" stop-color="rgb(89.971924%, 90.002441%, 89.358521%)" stop-opacity="1"/>
<stop offset="0.171875" stop-color="rgb(89.651489%, 89.616394%, 89.120483%)" stop-opacity="1"/>
<stop offset="0.175781" stop-color="rgb(89.332581%, 89.221191%, 88.522339%)" stop-opacity="1"/>
<stop offset="0.179688" stop-color="rgb(89.015198%, 88.825989%, 87.927246%)" stop-opacity="1"/>
<stop offset="0.183594" stop-color="rgb(88.571167%, 88.40332%, 87.512207%)" stop-opacity="1"/>
<stop offset="0.1875" stop-color="rgb(88.128662%, 87.982178%, 87.095642%)" stop-opacity="1"/>
<stop offset="0.191406" stop-color="rgb(87.744141%, 87.579346%, 86.686707%)" stop-opacity="1"/>
<stop offset="0.195312" stop-color="rgb(87.361145%, 87.176514%, 86.276245%)" stop-opacity="1"/>
<stop offset="0.199219" stop-color="rgb(87.039185%, 86.64856%, 85.809326%)" stop-opacity="1"/>
<stop offset="0.203125" stop-color="rgb(86.717224%, 86.120605%, 85.343933%)" stop-opacity="1"/>
<stop offset="0.207031" stop-color="rgb(86.212158%, 85.65979%, 84.927368%)" stop-opacity="1"/>
<stop offset="0.210938" stop-color="rgb(85.705566%, 85.197449%, 84.512329%)" stop-opacity="1"/>
<stop offset="0.214844" stop-color="rgb(85.212708%, 84.947205%, 84.185791%)" stop-opacity="1"/>
<stop offset="0.21875" stop-color="rgb(84.718323%, 84.698486%, 83.859253%)" stop-opacity="1"/>
<stop offset="0.222656" stop-color="rgb(84.397888%, 84.150696%, 83.39386%)" stop-opacity="1"/>
<stop offset="0.226562" stop-color="rgb(84.075928%, 83.604431%, 82.929993%)" stop-opacity="1"/>
<stop offset="0.230469" stop-color="rgb(83.575439%, 83.184814%, 82.539368%)" stop-opacity="1"/>
<stop offset="0.234375" stop-color="rgb(83.074951%, 82.76825%, 82.150269%)" stop-opacity="1"/>
<stop offset="0.238281" stop-color="rgb(82.766724%, 82.402039%, 81.765747%)" stop-opacity="1"/>
<stop offset="0.242188" stop-color="rgb(82.458496%, 82.037354%, 81.381226%)" stop-opacity="1"/>
<stop offset="0.246094" stop-color="rgb(82.090759%, 81.658936%, 80.999756%)" stop-opacity="1"/>
<stop offset="0.25" stop-color="rgb(81.723022%, 81.280518%, 80.619812%)" stop-opacity="1"/>
<stop offset="0.253906" stop-color="rgb(81.286621%, 80.882263%, 80.090332%)" stop-opacity="1"/>
<stop offset="0.257813" stop-color="rgb(80.85022%, 80.484009%, 79.563904%)" stop-opacity="1"/>
<stop offset="0.261719" stop-color="rgb(80.352783%, 79.905701%, 79.10614%)" stop-opacity="1"/>
<stop offset="0.265625" stop-color="rgb(79.855347%, 79.330444%, 78.649902%)" stop-opacity="1"/>
<stop offset="0.269531" stop-color="rgb(79.362488%, 78.930664%, 78.282166%)" stop-opacity="1"/>
<stop offset="0.273438" stop-color="rgb(78.871155%, 78.530884%, 77.915955%)" stop-opacity="1"/>
<stop offset="0.277344" stop-color="rgb(78.569031%, 78.17688%, 77.445984%)" stop-opacity="1"/>
<stop offset="0.28125" stop-color="rgb(78.265381%, 77.822876%, 76.976013%)" stop-opacity="1"/>
<stop offset="0.285156" stop-color="rgb(77.774048%, 77.258301%, 76.493835%)" stop-opacity="1"/>
<stop offset="0.289062" stop-color="rgb(77.282715%, 76.696777%, 76.013184%)" stop-opacity="1"/>
<stop offset="0.292969" stop-color="rgb(76.831055%, 76.316833%, 75.660706%)" stop-opacity="1"/>
<stop offset="0.296875" stop-color="rgb(76.38092%, 75.938416%, 75.308228%)" stop-opacity="1"/>
<stop offset="0.300781" stop-color="rgb(76.046753%, 75.587463%, 74.894714%)" stop-opacity="1"/>
<stop offset="0.304688" stop-color="rgb(75.714111%, 75.236511%, 74.479675%)" stop-opacity="1"/>
<stop offset="0.308594" stop-color="rgb(75.234985%, 74.853516%, 74.038696%)" stop-opacity="1"/>
<stop offset="0.3125" stop-color="rgb(74.755859%, 74.47052%, 73.600769%)" stop-opacity="1"/>
<stop offset="0.316406" stop-color="rgb(74.455261%, 74.134827%, 73.257446%)" stop-opacity="1"/>
<stop offset="0.320312" stop-color="rgb(74.154663%, 73.797607%, 72.914124%)" stop-opacity="1"/>
<stop offset="0.324219" stop-color="rgb(73.674011%, 73.258972%, 72.514343%)" stop-opacity="1"/>
<stop offset="0.328125" stop-color="rgb(73.193359%, 72.721863%, 72.117615%)" stop-opacity="1"/>
<stop offset="0.332031" stop-color="rgb(72.766113%, 72.361755%, 71.784973%)" stop-opacity="1"/>
<stop offset="0.335938" stop-color="rgb(72.338867%, 72.003174%, 71.452332%)" stop-opacity="1"/>
<stop offset="0.339844" stop-color="rgb(71.99707%, 71.665955%, 71.121216%)" stop-opacity="1"/>
<stop offset="0.34375" stop-color="rgb(71.653748%, 71.328735%, 70.7901%)" stop-opacity="1"/>
<stop offset="0.347656" stop-color="rgb(71.199036%, 70.968628%, 70.466614%)" stop-opacity="1"/>
<stop offset="0.351562" stop-color="rgb(70.744324%, 70.610046%, 70.141602%)" stop-opacity="1"/>
<stop offset="0.355469" stop-color="rgb(70.347595%, 70.263672%, 69.747925%)" stop-opacity="1"/>
<stop offset="0.359375" stop-color="rgb(69.952393%, 69.920349%, 69.355774%)" stop-opacity="1"/>
<stop offset="0.363281" stop-color="rgb(69.569397%, 69.421387%, 68.89801%)" stop-opacity="1"/>
<stop offset="0.367187" stop-color="rgb(69.186401%, 68.92395%, 68.443298%)" stop-opacity="1"/>
<stop offset="0.371094" stop-color="rgb(68.783569%, 68.585205%, 68.130493%)" stop-opacity="1"/>
<stop offset="0.375" stop-color="rgb(68.380737%, 68.24646%, 67.816162%)" stop-opacity="1"/>
<stop offset="0.378906" stop-color="rgb(68.029785%, 67.883301%, 67.344666%)" stop-opacity="1"/>
<stop offset="0.382813" stop-color="rgb(67.680359%, 67.521667%, 66.874695%)" stop-opacity="1"/>
<stop offset="0.386719" stop-color="rgb(67.251587%, 67.062378%, 66.525269%)" stop-opacity="1"/>
<stop offset="0.390625" stop-color="rgb(66.824341%, 66.603088%, 66.178894%)" stop-opacity="1"/>
<stop offset="0.394531" stop-color="rgb(66.436768%, 66.275024%, 65.820312%)" stop-opacity="1"/>
<stop offset="0.398438" stop-color="rgb(66.049194%, 65.948486%, 65.464783%)" stop-opacity="1"/>
<stop offset="0.402344" stop-color="rgb(65.484619%, 65.437317%, 65.032959%)" stop-opacity="1"/>
<stop offset="0.40625" stop-color="rgb(64.920044%, 64.930725%, 64.602661%)" stop-opacity="1"/>
<stop offset="0.410156" stop-color="rgb(64.5401%, 64.52179%, 64.135742%)" stop-opacity="1"/>
<stop offset="0.414062" stop-color="rgb(64.160156%, 64.11438%, 63.670349%)" stop-opacity="1"/>
<stop offset="0.417969" stop-color="rgb(63.609314%, 63.664246%, 63.20343%)" stop-opacity="1"/>
<stop offset="0.421875" stop-color="rgb(63.061523%, 63.217163%, 62.739563%)" stop-opacity="1"/>
<stop offset="0.425781" stop-color="rgb(62.696838%, 62.69989%, 62.309265%)" stop-opacity="1"/>
<stop offset="0.429688" stop-color="rgb(62.333679%, 62.182617%, 61.878967%)" stop-opacity="1"/>
<stop offset="0.433594" stop-color="rgb(61.880493%, 61.862183%, 61.56311%)" stop-opacity="1"/>
<stop offset="0.4375" stop-color="rgb(61.428833%, 61.541748%, 61.248779%)" stop-opacity="1"/>
<stop offset="0.441406" stop-color="rgb(61.001587%, 61.227417%, 60.879517%)" stop-opacity="1"/>
<stop offset="0.445312" stop-color="rgb(60.572815%, 60.914612%, 60.513306%)" stop-opacity="1"/>
<stop offset="0.449219" stop-color="rgb(60.23407%, 60.578918%, 60.186768%)" stop-opacity="1"/>
<stop offset="0.453125" stop-color="rgb(59.893799%, 60.244751%, 59.861755%)" stop-opacity="1"/>
<stop offset="0.457031" stop-color="rgb(59.577942%, 59.761047%, 59.480286%)" stop-opacity="1"/>
<stop offset="0.460938" stop-color="rgb(59.260559%, 59.27887%, 59.098816%)" stop-opacity="1"/>
<stop offset="0.464844" stop-color="rgb(58.81958%, 58.918762%, 58.769226%)" stop-opacity="1"/>
<stop offset="0.46875" stop-color="rgb(58.378601%, 58.558655%, 58.439636%)" stop-opacity="1"/>
<stop offset="0.472656" stop-color="rgb(58.708191%, 58.848572%, 58.673096%)" stop-opacity="1"/>
<stop offset="0.476562" stop-color="rgb(59.036255%, 59.136963%, 58.903503%)" stop-opacity="1"/>
<stop offset="0.480469" stop-color="rgb(59.318542%, 59.536743%, 59.231567%)" stop-opacity="1"/>
<stop offset="0.484375" stop-color="rgb(59.60083%, 59.938049%, 59.559631%)" stop-opacity="1"/>
<stop offset="0.488281" stop-color="rgb(59.991455%, 60.345459%, 59.962463%)" stop-opacity="1"/>
<stop offset="0.492187" stop-color="rgb(60.383606%, 60.754395%, 60.365295%)" stop-opacity="1"/>
<stop offset="0.496094" stop-color="rgb(60.852051%, 61.091614%, 60.791016%)" stop-opacity="1"/>
<stop offset="0.5" stop-color="rgb(61.320496%, 61.428833%, 61.218262%)" stop-opacity="1"/>
<stop offset="0.503906" stop-color="rgb(61.791992%, 61.767578%, 61.51123%)" stop-opacity="1"/>
<stop offset="0.507812" stop-color="rgb(62.263489%, 62.109375%, 61.807251%)" stop-opacity="1"/>
<stop offset="0.511719" stop-color="rgb(62.637329%, 62.62207%, 62.240601%)" stop-opacity="1"/>
<stop offset="0.515625" stop-color="rgb(63.011169%, 63.137817%, 62.677002%)" stop-opacity="1"/>
<stop offset="0.519531" stop-color="rgb(63.592529%, 63.633728%, 63.179016%)" stop-opacity="1"/>
<stop offset="0.523438" stop-color="rgb(64.175415%, 64.131165%, 63.682556%)" stop-opacity="1"/>
<stop offset="0.527344" stop-color="rgb(64.74762%, 64.611816%, 64.190674%)" stop-opacity="1"/>
<stop offset="0.53125" stop-color="rgb(65.319824%, 65.093994%, 64.701843%)" stop-opacity="1"/>
<stop offset="0.535156" stop-color="rgb(65.774536%, 65.577698%, 65.184021%)" stop-opacity="1"/>
<stop offset="0.539062" stop-color="rgb(66.229248%, 66.062927%, 65.667725%)" stop-opacity="1"/>
<stop offset="0.542969" stop-color="rgb(66.65802%, 66.415405%, 65.989685%)" stop-opacity="1"/>
<stop offset="0.546875" stop-color="rgb(67.086792%, 66.769409%, 66.314697%)" stop-opacity="1"/>
<stop offset="0.550781" stop-color="rgb(67.468262%, 67.274475%, 66.737366%)" stop-opacity="1"/>
<stop offset="0.554688" stop-color="rgb(67.851257%, 67.779541%, 67.163086%)" stop-opacity="1"/>
<stop offset="0.558594" stop-color="rgb(68.328857%, 68.15033%, 67.602539%)" stop-opacity="1"/>
<stop offset="0.5625" stop-color="rgb(68.809509%, 68.52417%, 68.045044%)" stop-opacity="1"/>
<stop offset="0.566406" stop-color="rgb(69.125366%, 69.023132%, 68.444824%)" stop-opacity="1"/>
<stop offset="0.570313" stop-color="rgb(69.439697%, 69.523621%, 68.84613%)" stop-opacity="1"/>
<stop offset="0.574219" stop-color="rgb(69.93103%, 69.906616%, 69.334412%)" stop-opacity="1"/>
<stop offset="0.578125" stop-color="rgb(70.423889%, 70.289612%, 69.827271%)" stop-opacity="1"/>
<stop offset="0.582031" stop-color="rgb(70.918274%, 70.680237%, 70.173645%)" stop-opacity="1"/>
<stop offset="0.585937" stop-color="rgb(71.414185%, 71.073914%, 70.523071%)" stop-opacity="1"/>
<stop offset="0.589844" stop-color="rgb(71.862793%, 71.607971%, 70.932007%)" stop-opacity="1"/>
<stop offset="0.59375" stop-color="rgb(72.309875%, 72.143555%, 71.343994%)" stop-opacity="1"/>
<stop offset="0.597656" stop-color="rgb(72.673035%, 72.505188%, 71.70105%)" stop-opacity="1"/>
<stop offset="0.601562" stop-color="rgb(73.036194%, 72.869873%, 72.061157%)" stop-opacity="1"/>
<stop offset="0.605469" stop-color="rgb(73.538208%, 73.268127%, 72.418213%)" stop-opacity="1"/>
<stop offset="0.609375" stop-color="rgb(74.038696%, 73.666382%, 72.779846%)" stop-opacity="1"/>
<stop offset="0.613281" stop-color="rgb(74.507141%, 74.06311%, 73.271179%)" stop-opacity="1"/>
<stop offset="0.617188" stop-color="rgb(74.975586%, 74.459839%, 73.765564%)" stop-opacity="1"/>
<stop offset="0.621094" stop-color="rgb(75.328064%, 74.829102%, 74.165344%)" stop-opacity="1"/>
<stop offset="0.625" stop-color="rgb(75.679016%, 75.201416%, 74.56665%)" stop-opacity="1"/>
<stop offset="0.628906" stop-color="rgb(76.187134%, 75.610352%, 74.938965%)" stop-opacity="1"/>
<stop offset="0.632812" stop-color="rgb(76.6922%, 76.020813%, 75.314331%)" stop-opacity="1"/>
<stop offset="0.636719" stop-color="rgb(77.015686%, 76.541138%, 75.75531%)" stop-opacity="1"/>
<stop offset="0.640625" stop-color="rgb(77.340698%, 77.062988%, 76.196289%)" stop-opacity="1"/>
<stop offset="0.644531" stop-color="rgb(77.850342%, 77.49939%, 76.68457%)" stop-opacity="1"/>
<stop offset="0.648438" stop-color="rgb(78.361511%, 77.937317%, 77.172852%)" stop-opacity="1"/>
<stop offset="0.652344" stop-color="rgb(78.741455%, 78.327942%, 77.627563%)" stop-opacity="1"/>
<stop offset="0.65625" stop-color="rgb(79.121399%, 78.718567%, 78.082275%)" stop-opacity="1"/>
<stop offset="0.660156" stop-color="rgb(79.579163%, 79.130554%, 78.475952%)" stop-opacity="1"/>
<stop offset="0.664063" stop-color="rgb(80.036926%, 79.544067%, 78.871155%)" stop-opacity="1"/>
<stop offset="0.667969" stop-color="rgb(80.558777%, 80.149841%, 79.455566%)" stop-opacity="1"/>
<stop offset="0.671875" stop-color="rgb(81.079102%, 80.757141%, 80.039978%)" stop-opacity="1"/>
<stop offset="0.675781" stop-color="rgb(81.602478%, 81.369019%, 80.567932%)" stop-opacity="1"/>
<stop offset="0.679687" stop-color="rgb(82.12738%, 81.982422%, 81.098938%)" stop-opacity="1"/>
<stop offset="0.683594" stop-color="rgb(82.45697%, 82.357788%, 81.503296%)" stop-opacity="1"/>
<stop offset="0.6875" stop-color="rgb(82.78656%, 82.733154%, 81.90918%)" stop-opacity="1"/>
<stop offset="0.691406" stop-color="rgb(83.265686%, 83.14209%, 82.313538%)" stop-opacity="1"/>
<stop offset="0.695312" stop-color="rgb(83.744812%, 83.551025%, 82.719421%)" stop-opacity="1"/>
<stop offset="0.699219" stop-color="rgb(84.213257%, 84.024048%, 83.155823%)" stop-opacity="1"/>
<stop offset="0.703125" stop-color="rgb(84.680176%, 84.495544%, 83.59375%)" stop-opacity="1"/>
<stop offset="0.707031" stop-color="rgb(85.115051%, 84.893799%, 84.005737%)" stop-opacity="1"/>
<stop offset="0.710938" stop-color="rgb(85.548401%, 85.290527%, 84.41925%)" stop-opacity="1"/>
<stop offset="0.714844" stop-color="rgb(86.050415%, 85.746765%, 84.8526%)" stop-opacity="1"/>
<stop offset="0.71875" stop-color="rgb(86.552429%, 86.203003%, 85.287476%)" stop-opacity="1"/>
<stop offset="0.722656" stop-color="rgb(86.915588%, 86.64093%, 85.728455%)" stop-opacity="1"/>
<stop offset="0.726562" stop-color="rgb(87.280273%, 87.078857%, 86.172485%)" stop-opacity="1"/>
<stop offset="0.730469" stop-color="rgb(87.669373%, 87.503052%, 86.608887%)" stop-opacity="1"/>
<stop offset="0.734375" stop-color="rgb(88.058472%, 87.928772%, 87.04834%)" stop-opacity="1"/>
<stop offset="0.738281" stop-color="rgb(88.542175%, 88.381958%, 87.493896%)" stop-opacity="1"/>
<stop offset="0.742188" stop-color="rgb(89.024353%, 88.83667%, 87.939453%)" stop-opacity="1"/>
<stop offset="0.746094" stop-color="rgb(89.36615%, 89.260864%, 88.566589%)" stop-opacity="1"/>
<stop offset="0.75" stop-color="rgb(89.707947%, 89.686584%, 89.193726%)" stop-opacity="1"/>
<stop offset="0.753906" stop-color="rgb(90.05127%, 90.098572%, 89.463806%)" stop-opacity="1"/>
<stop offset="0.757812" stop-color="rgb(90.394592%, 90.512085%, 89.733887%)" stop-opacity="1"/>
<stop offset="0.761719" stop-color="rgb(90.25116%, 90.19165%, 89.518738%)" stop-opacity="1"/>
<stop offset="0.765625" stop-color="rgb(90.106201%, 89.871216%, 89.303589%)" stop-opacity="1"/>
<stop offset="0.769531" stop-color="rgb(89.549255%, 89.334106%, 88.61084%)" stop-opacity="1"/>
<stop offset="0.773438" stop-color="rgb(88.99231%, 88.800049%, 87.921143%)" stop-opacity="1"/>
<stop offset="0.777344" stop-color="rgb(88.238525%, 88.063049%, 87.345886%)" stop-opacity="1"/>
<stop offset="0.78125" stop-color="rgb(87.486267%, 87.327576%, 86.773682%)" stop-opacity="1"/>
<stop offset="0.785156" stop-color="rgb(86.929321%, 86.660767%, 86.04126%)" stop-opacity="1"/>
<stop offset="0.789062" stop-color="rgb(86.372375%, 85.997009%, 85.31189%)" stop-opacity="1"/>
<stop offset="0.792969" stop-color="rgb(85.632324%, 85.414124%, 84.683228%)" stop-opacity="1"/>
<stop offset="0.796875" stop-color="rgb(84.893799%, 84.835815%, 84.059143%)" stop-opacity="1"/>
<stop offset="0.800781" stop-color="rgb(84.277344%, 84.147644%, 83.468628%)" stop-opacity="1"/>
<stop offset="0.804688" stop-color="rgb(83.660889%, 83.460999%, 82.881165%)" stop-opacity="1"/>
<stop offset="0.808594" stop-color="rgb(82.98645%, 82.759094%, 82.171631%)" stop-opacity="1"/>
<stop offset="0.8125" stop-color="rgb(82.313538%, 82.061768%, 81.465149%)" stop-opacity="1"/>
<stop offset="0.816406" stop-color="rgb(81.773376%, 81.494141%, 80.728149%)" stop-opacity="1"/>
<stop offset="0.820313" stop-color="rgb(81.231689%, 80.929565%, 79.995728%)" stop-opacity="1"/>
<stop offset="0.824219" stop-color="rgb(80.496216%, 80.073547%, 79.266357%)" stop-opacity="1"/>
<stop offset="0.828125" stop-color="rgb(79.76532%, 79.226685%, 78.541565%)" stop-opacity="1"/>
<stop offset="0.832031" stop-color="rgb(79.040527%, 78.555298%, 77.893066%)" stop-opacity="1"/>
<stop offset="0.835937" stop-color="rgb(78.317261%, 77.890015%, 77.249146%)" stop-opacity="1"/>
<stop offset="0.839844" stop-color="rgb(77.593994%, 77.082825%, 76.420593%)" stop-opacity="1"/>
<stop offset="0.84375" stop-color="rgb(76.873779%, 76.280212%, 75.598145%)" stop-opacity="1"/>
<stop offset="0.847656" stop-color="rgb(76.344299%, 75.657654%, 74.951172%)" stop-opacity="1"/>
<stop offset="0.851562" stop-color="rgb(75.816345%, 75.038147%, 74.308777%)" stop-opacity="1"/>
<stop offset="0.855469" stop-color="rgb(75.106812%, 74.546814%, 73.747253%)" stop-opacity="1"/>
<stop offset="0.859375" stop-color="rgb(74.398804%, 74.058533%, 73.190308%)" stop-opacity="1"/>
<stop offset="0.863281" stop-color="rgb(73.690796%, 73.410034%, 72.584534%)" stop-opacity="1"/>
<stop offset="0.867188" stop-color="rgb(72.98584%, 72.764587%, 71.983337%)" stop-opacity="1"/>
<stop offset="0.871094" stop-color="rgb(72.28241%, 72.128296%, 71.505737%)" stop-opacity="1"/>
<stop offset="0.875" stop-color="rgb(71.582031%, 71.496582%, 71.031189%)" stop-opacity="1"/>
<stop offset="0.878906" stop-color="rgb(70.883179%, 70.864868%, 70.332336%)" stop-opacity="1"/>
<stop offset="0.882812" stop-color="rgb(70.187378%, 70.237732%, 69.641113%)" stop-opacity="1"/>
<stop offset="0.886719" stop-color="rgb(69.677734%, 69.569397%, 69.030762%)" stop-opacity="1"/>
<stop offset="0.890625" stop-color="rgb(69.169617%, 68.90564%, 68.426514%)" stop-opacity="1"/>
<stop offset="0.894531" stop-color="rgb(68.481445%, 68.310547%, 67.790222%)" stop-opacity="1"/>
<stop offset="0.898438" stop-color="rgb(67.7948%, 67.718506%, 67.158508%)" stop-opacity="1"/>
<stop offset="0.902344" stop-color="rgb(67.111206%, 67.03186%, 66.514587%)" stop-opacity="1"/>
<stop offset="0.90625" stop-color="rgb(66.43219%, 66.351318%, 65.875244%)" stop-opacity="1"/>
<stop offset="0.910156" stop-color="rgb(65.753174%, 65.722656%, 65.289307%)" stop-opacity="1"/>
<stop offset="0.914063" stop-color="rgb(65.077209%, 65.098572%, 64.709473%)" stop-opacity="1"/>
<stop offset="0.917969" stop-color="rgb(64.381409%, 64.373779%, 63.908386%)" stop-opacity="1"/>
<stop offset="0.921875" stop-color="rgb(63.68866%, 63.656616%, 63.116455%)" stop-opacity="1"/>
<stop offset="0.925781" stop-color="rgb(62.944031%, 62.85553%, 62.42981%)" stop-opacity="1"/>
<stop offset="0.929687" stop-color="rgb(62.203979%, 62.059021%, 61.749268%)" stop-opacity="1"/>
<stop offset="0.933594" stop-color="rgb(61.543274%, 61.51123%, 61.247253%)" stop-opacity="1"/>
<stop offset="0.9375" stop-color="rgb(60.882568%, 60.968018%, 60.748291%)" stop-opacity="1"/>
<stop offset="0.941406" stop-color="rgb(60.137939%, 60.346985%, 60.163879%)" stop-opacity="1"/>
<stop offset="0.945312" stop-color="rgb(59.399414%, 59.73053%, 59.58252%)" stop-opacity="1"/>
<stop offset="0.949219" stop-color="rgb(58.834839%, 59.146118%, 58.992004%)" stop-opacity="1"/>
<stop offset="0.953125" stop-color="rgb(58.273315%, 58.563232%, 58.406067%)" stop-opacity="1"/>
<stop offset="0.957031" stop-color="rgb(57.71637%, 57.987976%, 57.827759%)" stop-opacity="1"/>
<stop offset="0.960938" stop-color="rgb(57.159424%, 57.415771%, 57.252502%)" stop-opacity="1"/>
<stop offset="0.964844" stop-color="rgb(56.604004%, 56.925964%, 56.770325%)" stop-opacity="1"/>
<stop offset="0.96875" stop-color="rgb(56.048584%, 56.439209%, 56.289673%)" stop-opacity="1"/>
<stop offset="0.972656" stop-color="rgb(55.407715%, 55.767822%, 55.69458%)" stop-opacity="1"/>
<stop offset="0.976562" stop-color="rgb(54.769897%, 55.101013%, 55.105591%)" stop-opacity="1"/>
<stop offset="0.980469" stop-color="rgb(54.136658%, 54.441833%, 54.454041%)" stop-opacity="1"/>
<stop offset="0.984375" stop-color="rgb(53.507996%, 53.788757%, 53.81012%)" stop-opacity="1"/>
<stop offset="0.988281" stop-color="rgb(52.755737%, 53.125%, 53.276062%)" stop-opacity="1"/>
<stop offset="0.992188" stop-color="rgb(52.008057%, 52.46582%, 52.746582%)" stop-opacity="1"/>
<stop offset="0.996094" stop-color="rgb(51.264954%, 51.733398%, 52.056885%)" stop-opacity="1"/>
<stop offset="1" stop-color="rgb(50.524902%, 51.005554%, 51.373291%)" stop-opacity="1"/>
</linearGradient>
</defs>
<path fill-rule="evenodd" fill="rgb(100%, 100%, 100%)" fill-opacity="1" d="M 3000 0 L 6000 0 L 6000 2998 L 3000 2998 L 3000 0 "/>
<path fill-rule="evenodd" fill="rgb(6.266785%, 5.734253%, 5.047607%)" fill-opacity="1" d="M 0 0 L 3000 0 L 3000 2998 L 0 2998 L 0 0 "/>
<path fill-rule="evenodd" fill="rgb(54.283142%, 55.552673%, 56.916809%)" fill-opacity="1" d="M 3000 0 L 3104.570312 0 L 3104.570312 2998 L 3000 2998 L 3000 0 "/>
<path fill-rule="evenodd" fill="rgb(90.364075%, 11.735535%, 16.299438%)" fill-opacity="1" d="M 3900.730469 1691.210938 C 3908.429688 1671.671875 3911.441406 1650.609375 3909.519531 1629.710938 C 3922.941406 1647.648438 3931.191406 1668.910156 3933.378906 1691.210938 L 5099.28125 1691.199219 C 5136.101562 1729.800781 5200.671875 1778.78125 5269.988281 1778.480469 C 5339.308594 1778.179688 5415.71875 1736.808594 5448.320312 1676.878906 L 5275.269531 1677.621094 C 5256.421875 1677.699219 5240.929688 1662.351562 5240.851562 1643.519531 L 5240.441406 1548.378906 C 5240.359375 1529.539062 5255.71875 1514.070312 5274.570312 1513.988281 L 5447.621094 1513.25 C 5414.511719 1453.589844 5337.738281 1412.871094 5268.421875 1413.171875 C 5199.101562 1413.46875 5136.839844 1457.289062 5100.339844 1496.199219 C 5092.628906 1515.730469 5089.621094 1536.800781 5091.550781 1557.699219 C 5078.128906 1539.761719 5069.878906 1518.488281 5067.679688 1496.199219 L 3899.671875 1496.199219 C 3863.160156 1457.289062 3800.910156 1413.46875 3731.578125 1413.171875 C 3662.261719 1412.871094 3585.488281 1453.589844 3552.390625 1513.25 L 3725.429688 1513.988281 C 3744.289062 1514.070312 3759.640625 1529.539062 3759.558594 1548.378906 L 3759.148438 1643.519531 C 3759.070312 1662.351562 3743.578125 1677.699219 3724.730469 1677.621094 L 3551.679688 1676.878906 C 3584.28125 1736.800781 3660.679688 1778.179688 3730.011719 1778.480469 C 3799.328125 1778.789062 3863.898438 1729.800781 3900.730469 1691.210938 "/>
<path fill-rule="evenodd" fill="rgb(27.392578%, 27.412415%, 28.082275%)" fill-opacity="1" d="M 4307.03125 1405.839844 C 4315.980469 1405.191406 4382.078125 1422.75 4397.960938 1426.261719 C 4431.078125 1433.589844 4464.230469 1437.089844 4498.210938 1441.101562 C 4715.328125 1466.75 4722.210938 1447.730469 4920.089844 1429.289062 C 5015.730469 1420.378906 5047.070312 1436.03125 5125.148438 1448.738281 C 5048.601562 1395.128906 4962.398438 1387.75 4851.960938 1386.761719 C 4788.460938 1386.191406 4758.78125 1387.300781 4701.179688 1369.519531 C 4658.320312 1356.300781 4615.550781 1342.558594 4571.851562 1331.699219 C 4465.179688 1305.179688 4377.640625 1305.398438 4265.761719 1318.988281 C 4208.878906 1325.898438 4126.671875 1344.761719 4061.078125 1364.140625 C 4086.109375 1363.488281 4111.210938 1364.898438 4136.050781 1367.78125 C 4152.089844 1369.648438 4168.070312 1372.128906 4183.960938 1375.109375 C 4185.300781 1372.328125 4186.640625 1369.53125 4187.191406 1368.839844 C 4200.410156 1352.378906 4201.640625 1349.371094 4232.679688 1343.460938 C 4347.210938 1321.699219 4455.5 1322.5 4566.601562 1357.988281 C 4580.351562 1362.378906 4661.28125 1391.96875 4673.160156 1404.46875 C 4569.710938 1424.441406 4384.671875 1398.300781 4307.03125 1405.839844 Z M 4148.480469 1426.609375 C 4082.460938 1408.03125 4005.28125 1395.058594 3937.488281 1416.308594 C 4056.949219 1415.210938 4046.199219 1425.320312 4150.898438 1447.429688 C 4186.25 1454.898438 4222.121094 1461.359375 4259.519531 1462.699219 C 4288.398438 1463.730469 4305.859375 1462.121094 4320.191406 1459.890625 C 4315.75 1459.339844 4311.320312 1458.78125 4306.890625 1458.210938 C 4284.109375 1455.28125 4261.308594 1452.601562 4238.878906 1447.550781 C 4234.820312 1446.628906 4230.75 1445.578125 4226.710938 1444.570312 C 4200.5 1438 4174.898438 1434.039062 4148.480469 1426.609375 Z M 3994.488281 1329.46875 C 3997.910156 1337.890625 4002.179688 1334.96875 4013.929688 1338.328125 C 4016.070312 1338.941406 4015.511719 1339 4015.730469 1341.339844 L 4017.160156 1356.800781 C 4035.050781 1351.269531 4050.519531 1343.5 4070.488281 1338.449219 C 4088.800781 1333.820312 4112.539062 1332.71875 4127.671875 1324.851562 C 4102.941406 1323.308594 4017.640625 1316.160156 3995.808594 1325.671875 C 3993.109375 1326.859375 3993.390625 1326.75 3994.488281 1329.46875 Z M 4262.53125 1401.820312 C 4164.621094 1374.308594 4050.160156 1355.980469 3949.609375 1391.480469 C 4126.789062 1386.378906 4110.828125 1402.671875 4266.109375 1434.679688 C 4318.550781 1445.488281 4371.738281 1454.691406 4427.199219 1455.738281 C 4470.039062 1456.558594 4495.941406 1453.519531 4517.179688 1449.589844 C 4510.609375 1448.851562 4504.039062 1448.089844 4497.460938 1447.320312 C 4463.679688 1443.328125 4429.871094 1439.730469 4396.601562 1432.378906 C 4390.570312 1431.039062 4384.539062 1429.5 4378.550781 1428.011719 C 4339.679688 1418.359375 4301.710938 1412.828125 4262.53125 1401.820312 "/>
<path fill-rule="evenodd" fill="rgb(90.364075%, 11.735535%, 16.299438%)" fill-opacity="1" d="M 4667.480469 1072.070312 C 4789 1056.828125 4889.28125 1097.910156 4968.300781 1195.300781 C 4910.769531 1077 4804.621094 1021.929688 4649.871094 1030.101562 C 4472.699219 1049.289062 4307.820312 1129.761719 4183.730469 1257.589844 L 4269.101562 1271.128906 C 4411.96875 1147.628906 4544.769531 1081.28125 4667.480469 1072.070312 Z M 4717.960938 1804.320312 C 4431.269531 1975.730469 4227.558594 1973.019531 4106.839844 1796.191406 L 4009.269531 1796.871094 C 4061.789062 1938.191406 4202.71875 1990.328125 4432.039062 1953.269531 C 4537.820312 1925.011719 4633.121094 1875.359375 4717.960938 1804.320312 "/>
<path fill-rule="evenodd" fill="rgb(27.392578%, 27.412415%, 28.082275%)" fill-opacity="1" d="M 5097.519531 1294.128906 C 5126.140625 1298.710938 5154.871094 1302.640625 5183.660156 1305.910156 C 5183.519531 1284.171875 5181.140625 1262.5 5176.550781 1241.25 L 5299.179688 1139.011719 L 5264.96875 1037.109375 L 5126.75 1086.539062 C 5103.050781 1044.179688 5068.730469 1008.710938 5027.160156 983.621094 L 5085.089844 859.378906 L 4982.101562 815.371094 L 4868.960938 922.351562 C 4812.441406 914 4754.980469 914.339844 4698.558594 923.359375 L 4666.71875 817.058594 L 4534.609375 855.660156 L 4490.898438 984.640625 C 4429.480469 1010.398438 4370.800781 1042.269531 4315.769531 1079.769531 L 4320.679688 1088.058594 L 4325.589844 1096.359375 C 4565.820312 928.519531 5051.128906 898.121094 5068.828125 1289.320312 C 5078.378906 1291 5087.949219 1292.601562 5097.519531 1294.128906 "/>
<path fill-rule="evenodd" fill="rgb(27.392578%, 27.412415%, 28.082275%)" fill-opacity="1" d="M 3989.769531 1907.890625 L 3977.089844 1921.109375 C 4003.980469 1962.441406 4036 1994.441406 4073.128906 2017.089844 L 4016.890625 2141.671875 L 4123.941406 2180.929688 L 4233.359375 2077.011719 C 4283.890625 2085.859375 4340.359375 2086.078125 4402.738281 2077.679688 L 4435.941406 2182.628906 L 4568.390625 2144.371094 L 4613.789062 2016.410156 C 4678.160156 1990.679688 4738.601562 1956.039062 4793.328125 1913.488281 L 4894.109375 1960.71875 L 5007.589844 1861.53125 L 4980.488281 1795.179688 L 4880.699219 1795.578125 L 4813.828125 1795.859375 C 4691.878906 1909.648438 4554.558594 1983.898438 4401.890625 2018.609375 C 4227.058594 2048.539062 4090.648438 2010.621094 3992.671875 1904.859375 L 3989.769531 1907.890625 "/>
<path fill-rule="nonzero" fill="rgb(100%, 100%, 100%)" fill-opacity="1" d="M 4091.421875 1641.570312 L 4081.769531 1550.078125 L 4046.910156 1550.078125 L 3989.03125 1641.570312 L 4020.460938 1641.570312 L 4028.648438 1627.171875 L 4059.261719 1627.171875 L 4059.988281 1641.570312 Z M 4058.519531 1608.101562 L 4039.578125 1608.101562 L 4057.179688 1577.238281 Z M 4205.480469 1604.128906 L 4219.71875 1550.078125 L 4191.589844 1550.078125 L 4176.941406 1605.628906 C 4176.371094 1607.828125 4175.378906 1609.910156 4173.988281 1611.878906 C 4172.609375 1613.839844 4170.910156 1615.578125 4168.921875 1617.078125 C 4166.921875 1618.589844 4164.75 1619.78125 4162.410156 1620.648438 C 4160.078125 1621.519531 4157.679688 1621.960938 4155.210938 1621.960938 C 4152.738281 1621.960938 4150.539062 1621.519531 4148.621094 1620.648438 C 4146.699219 1619.78125 4145.140625 1618.589844 4143.929688 1617.078125 C 4142.730469 1615.578125 4141.949219 1613.839844 4141.601562 1611.878906 C 4141.25 1609.910156 4141.359375 1607.828125 4141.941406 1605.628906 L 4156.589844 1550.078125 L 4128.449219 1550.078125 L 4114.171875 1604.261719 C 4112.671875 1609.929688 4112.398438 1615.210938 4113.351562 1620.101562 C 4114.300781 1625 4116.351562 1629.230469 4119.480469 1632.789062 C 4122.609375 1636.359375 4126.699219 1639.171875 4131.738281 1641.230469 C 4136.769531 1643.28125 4142.640625 1644.308594 4149.308594 1644.308594 C 4156 1644.308594 4162.398438 1643.28125 4168.519531 1641.230469 C 4174.640625 1639.171875 4180.199219 1636.328125 4185.179688 1632.71875 C 4190.160156 1629.109375 4194.410156 1624.859375 4197.941406 1619.96875 C 4201.46875 1615.078125 4203.988281 1609.789062 4205.480469 1604.128906 Z M 4304.570312 1571.890625 L 4310.359375 1549.949219 L 4239.121094 1549.949219 L 4233.300781 1572.03125 L 4255.160156 1571.890625 L 4236.789062 1641.570312 L 4264.519531 1641.570312 L 4282.890625 1571.890625 L 4304.539062 1572.03125 Z M 4410.390625 1595.890625 C 4412.25 1588.851562 4412.679688 1582.359375 4411.691406 1576.421875 C 4410.691406 1570.46875 4408.519531 1565.351562 4405.160156 1561.050781 C 4401.808594 1556.761719 4397.421875 1553.398438 4391.96875 1550.96875 C 4386.519531 1548.550781 4380.28125 1547.339844 4373.230469 1547.339844 C 4366.101562 1547.339844 4359.160156 1548.550781 4352.441406 1550.96875 C 4345.710938 1553.398438 4339.539062 1556.761719 4333.929688 1561.050781 C 4328.308594 1565.351562 4323.441406 1570.46875 4319.308594 1576.421875 C 4315.179688 1582.359375 4312.191406 1588.851562 4310.328125 1595.890625 C 4308.480469 1602.929688 4308.050781 1609.398438 4309.058594 1615.300781 C 4310.070312 1621.199219 4312.25 1626.300781 4315.601562 1630.601562 C 4318.949219 1634.890625 4323.351562 1638.25 4328.789062 1640.679688 C 4334.238281 1643.101562 4340.53125 1644.308594 4347.671875 1644.308594 C 4354.710938 1644.308594 4361.601562 1643.101562 4368.320312 1640.679688 C 4375.039062 1638.25 4381.21875 1634.890625 4386.828125 1630.601562 C 4392.449219 1626.300781 4397.320312 1621.199219 4401.429688 1615.300781 C 4405.550781 1609.398438 4408.539062 1602.929688 4410.390625 1595.890625 Z M 4382.25 1595.890625 C 4381.339844 1599.371094 4380.011719 1602.691406 4378.261719 1605.839844 C 4376.511719 1608.988281 4374.429688 1611.761719 4372.019531 1614.140625 C 4369.621094 1616.519531 4366.851562 1618.410156 4363.730469 1619.828125 C 4360.609375 1621.25 4357.21875 1621.960938 4353.558594 1621.960938 C 4349.808594 1621.960938 4346.75 1621.25 4344.378906 1619.828125 C 4342.011719 1618.410156 4340.21875 1616.519531 4339.019531 1614.140625 C 4337.808594 1611.761719 4337.191406 1608.988281 4337.148438 1605.839844 C 4337.121094 1602.691406 4337.558594 1599.371094 4338.46875 1595.890625 C 4339.390625 1592.421875 4340.691406 1589.101562 4342.390625 1585.949219 C 4344.089844 1582.800781 4346.179688 1580.011719 4348.648438 1577.578125 C 4351.121094 1575.160156 4353.910156 1573.238281 4357.03125 1571.820312 C 4360.148438 1570.398438 4363.578125 1569.699219 4367.339844 1569.699219 C 4371 1569.699219 4374.011719 1570.398438 4376.390625 1571.820312 C 4378.75 1573.238281 4380.511719 1575.160156 4381.660156 1577.578125 C 4382.808594 1580.011719 4383.421875 1582.800781 4383.5 1585.949219 C 4383.589844 1589.101562 4383.171875 1592.421875 4382.25 1595.890625 Z M 4528.890625 1641.570312 L 4553.011719 1550.078125 L 4516.359375 1550.078125 L 4485.929688 1598.359375 L 4481.359375 1550.078125 L 4444.300781 1550.078125 L 4420.191406 1641.570312 L 4447.910156 1641.570312 L 4462.410156 1586.570312 L 4468.359375 1641.570312 L 4480.71875 1641.570312 L 4516.078125 1586.570312 L 4501.578125 1641.570312 Z M 4662.960938 1595.890625 C 4664.808594 1588.851562 4665.25 1582.359375 4664.25 1576.421875 C 4663.25 1570.46875 4661.078125 1565.351562 4657.730469 1561.050781 C 4654.378906 1556.761719 4649.980469 1553.398438 4644.53125 1550.96875 C 4639.089844 1548.550781 4632.839844 1547.339844 4625.800781 1547.339844 C 4618.660156 1547.339844 4611.730469 1548.550781 4605.011719 1550.96875 C 4598.28125 1553.398438 4592.109375 1556.761719 4586.5 1561.050781 C 4580.878906 1565.351562 4576.011719 1570.46875 4571.878906 1576.421875 C 4567.75 1582.359375 4564.761719 1588.851562 4562.898438 1595.890625 C 4561.050781 1602.929688 4560.621094 1609.398438 4561.628906 1615.300781 C 4562.640625 1621.199219 4564.808594 1626.300781 4568.171875 1630.601562 C 4571.519531 1634.890625 4575.910156 1638.25 4581.359375 1640.679688 C 4586.808594 1643.101562 4593.101562 1644.308594 4600.230469 1644.308594 C 4607.28125 1644.308594 4614.171875 1643.101562 4620.890625 1640.679688 C 4627.609375 1638.25 4633.78125 1634.890625 4639.398438 1630.601562 C 4645.011719 1626.300781 4649.878906 1621.199219 4654 1615.300781 C 4658.121094 1609.398438 4661.101562 1602.929688 4662.960938 1595.890625 Z M 4634.820312 1595.890625 C 4633.910156 1599.371094 4632.578125 1602.691406 4630.828125 1605.839844 C 4629.078125 1608.988281 4627 1611.761719 4624.589844 1614.140625 C 4622.179688 1616.519531 4619.421875 1618.410156 4616.289062 1619.828125 C 4613.179688 1621.25 4609.789062 1621.960938 4606.128906 1621.960938 C 4602.378906 1621.960938 4599.320312 1621.25 4596.941406 1619.828125 C 4594.570312 1618.410156 4592.789062 1616.519531 4591.578125 1614.140625 C 4590.378906 1611.761719 4589.761719 1608.988281 4589.71875 1605.839844 C 4589.679688 1602.691406 4590.121094 1599.371094 4591.039062 1595.890625 C 4591.960938 1592.421875 4593.261719 1589.101562 4594.960938 1585.949219 C 4596.660156 1582.800781 4598.75 1580.011719 4601.210938 1577.578125 C 4603.691406 1575.160156 4606.480469 1573.238281 4609.601562 1571.820312 C 4612.71875 1570.398438 4616.148438 1569.699219 4619.898438 1569.699219 C 4623.558594 1569.699219 4626.578125 1570.398438 4628.949219 1571.820312 C 4631.320312 1573.238281 4633.078125 1575.160156 4634.230469 1577.578125 C 4635.371094 1580.011719 4635.988281 1582.800781 4636.070312 1585.949219 C 4636.148438 1589.101562 4635.738281 1592.421875 4634.820312 1595.890625 Z M 4752.328125 1571.890625 L 4758.121094 1549.949219 L 4686.878906 1549.949219 L 4681.070312 1572.03125 L 4702.921875 1571.890625 L 4684.558594 1641.570312 L 4712.28125 1641.570312 L 4730.648438 1571.890625 L 4752.300781 1572.03125 Z M 4781.191406 1641.570312 L 4805.308594 1550.078125 L 4777.578125 1550.078125 L 4753.46875 1641.570312 Z M 4924.589844 1550.078125 L 4893.160156 1550.078125 L 4857.160156 1611.671875 L 4853.628906 1550.078125 L 4822.199219 1550.078125 L 4831.851562 1641.570312 L 4866.710938 1641.570312 Z M 4986.820312 1641.570312 L 4992.601562 1619.621094 L 4950.878906 1619.621094 L 4954.601562 1605.5 L 4995.328125 1605.628906 L 5000.75 1585.058594 L 4959.988281 1585.058594 L 4963.460938 1571.890625 L 5005.148438 1572.03125 L 5010.96875 1549.949219 L 4941.519531 1549.949219 L 4917.371094 1641.570312 L 4986.820312 1641.570312 "/>
<path fill-rule="evenodd" fill="rgb(90.364075%, 11.735535%, 16.299438%)" fill-opacity="1" d="M 900.726562 1691.210938 C 908.433594 1671.671875 911.445312 1650.609375 909.519531 1629.710938 C 922.9375 1647.648438 931.1875 1668.910156 933.382812 1691.210938 L 2099.28125 1691.199219 C 2136.101562 1729.800781 2200.671875 1778.78125 2269.988281 1778.480469 C 2339.308594 1778.179688 2415.71875 1736.808594 2448.320312 1676.878906 L 2275.269531 1677.621094 C 2256.421875 1677.699219 2240.929688 1662.351562 2240.851562 1643.519531 L 2240.441406 1548.378906 C 2240.359375 1529.539062 2255.710938 1514.070312 2274.570312 1513.988281 L 2447.621094 1513.25 C 2414.511719 1453.589844 2337.738281 1412.871094 2268.421875 1413.171875 C 2199.089844 1413.46875 2136.828125 1457.289062 2100.339844 1496.199219 C 2092.640625 1515.730469 2089.621094 1536.800781 2091.550781 1557.699219 C 2078.128906 1539.761719 2069.878906 1518.488281 2067.679688 1496.199219 L 899.664062 1496.199219 C 863.164062 1457.289062 800.902344 1413.46875 731.582031 1413.171875 C 662.257812 1412.871094 585.488281 1453.589844 552.390625 1513.25 L 725.4375 1513.988281 C 744.289062 1514.070312 759.640625 1529.539062 759.5625 1548.378906 L 759.152344 1643.519531 C 759.074219 1662.351562 743.582031 1677.699219 724.734375 1677.621094 L 551.683594 1676.878906 C 584.277344 1736.800781 660.683594 1778.179688 730.015625 1778.480469 C 799.335938 1778.789062 863.898438 1729.800781 900.726562 1691.210938 "/>
<path fill-rule="evenodd" fill="rgb(91.20636%, 91.151428%, 90.618896%)" fill-opacity="1" d="M 1307.03125 1405.839844 C 1315.980469 1405.191406 1382.078125 1422.75 1397.960938 1426.261719 C 1431.078125 1433.589844 1464.230469 1437.089844 1498.199219 1441.101562 C 1715.328125 1466.75 1722.210938 1447.730469 1920.089844 1429.289062 C 2015.730469 1420.378906 2047.070312 1436.03125 2125.148438 1448.738281 C 2048.601562 1395.128906 1962.398438 1387.75 1851.949219 1386.761719 C 1788.449219 1386.191406 1758.78125 1387.300781 1701.179688 1369.519531 C 1658.320312 1356.300781 1615.550781 1342.558594 1571.851562 1331.699219 C 1465.179688 1305.179688 1377.640625 1305.398438 1265.761719 1318.988281 C 1208.878906 1325.898438 1126.671875 1344.761719 1061.078125 1364.140625 C 1086.109375 1363.488281 1111.210938 1364.898438 1136.050781 1367.78125 C 1152.101562 1369.648438 1168.070312 1372.128906 1183.949219 1375.109375 C 1185.300781 1372.328125 1186.640625 1369.53125 1187.191406 1368.839844 C 1200.410156 1352.378906 1201.640625 1349.371094 1232.679688 1343.460938 C 1347.210938 1321.699219 1455.5 1322.5 1566.601562 1357.988281 C 1580.351562 1362.378906 1661.28125 1391.96875 1673.148438 1404.46875 C 1569.710938 1424.441406 1384.679688 1398.300781 1307.03125 1405.839844 Z M 1148.480469 1426.609375 C 1082.460938 1408.03125 1005.28125 1395.058594 937.484375 1416.308594 C 1056.949219 1415.210938 1046.199219 1425.320312 1150.898438 1447.429688 C 1186.261719 1454.898438 1222.121094 1461.359375 1259.519531 1462.699219 C 1288.398438 1463.730469 1305.859375 1462.121094 1320.191406 1459.890625 C 1315.75 1459.339844 1311.320312 1458.78125 1306.890625 1458.210938 C 1284.109375 1455.28125 1261.308594 1452.601562 1238.878906 1447.550781 C 1234.820312 1446.628906 1230.75 1445.578125 1226.710938 1444.570312 C 1200.5 1438 1174.898438 1434.039062 1148.480469 1426.609375 Z M 994.492188 1329.46875 C 997.910156 1337.890625 1002.179688 1334.96875 1013.929688 1338.328125 C 1016.070312 1338.941406 1015.511719 1339 1015.730469 1341.339844 L 1017.160156 1356.800781 C 1035.050781 1351.269531 1050.519531 1343.5 1070.488281 1338.449219 C 1088.808594 1333.820312 1112.539062 1332.71875 1127.671875 1324.851562 C 1102.941406 1323.308594 1017.640625 1316.160156 995.8125 1325.671875 C 993.109375 1326.859375 993.386719 1326.75 994.492188 1329.46875 Z M 1262.53125 1401.820312 C 1164.621094 1374.308594 1050.160156 1355.980469 949.609375 1391.480469 C 1126.789062 1386.378906 1110.839844 1402.671875 1266.109375 1434.679688 C 1318.550781 1445.488281 1371.738281 1454.691406 1427.210938 1455.738281 C 1470.039062 1456.558594 1495.941406 1453.519531 1517.179688 1449.589844 C 1510.609375 1448.851562 1504.03125 1448.089844 1497.46875 1447.320312 C 1463.679688 1443.328125 1429.871094 1439.730469 1396.601562 1432.378906 C 1390.570312 1431.039062 1384.539062 1429.5 1378.550781 1428.011719 C 1339.691406 1418.359375 1301.710938 1412.828125 1262.53125 1401.820312 "/>
<path fill-rule="evenodd" fill="rgb(90.364075%, 11.735535%, 16.299438%)" fill-opacity="1" d="M 1667.480469 1072.070312 C 1789 1056.828125 1889.28125 1097.910156 1968.300781 1195.300781 C 1910.769531 1077 1804.621094 1021.929688 1649.871094 1030.101562 C 1472.699219 1049.289062 1307.808594 1129.761719 1183.730469 1257.589844 L 1269.101562 1271.128906 C 1411.96875 1147.628906 1544.769531 1081.28125 1667.480469 1072.070312 Z M 1717.960938 1804.320312 C 1431.269531 1975.730469 1227.558594 1973.019531 1106.839844 1796.191406 L 1009.269531 1796.871094 C 1061.800781 1938.191406 1202.71875 1990.328125 1432.039062 1953.269531 C 1537.808594 1925.011719 1633.121094 1875.359375 1717.960938 1804.320312 "/>
<path fill-rule="evenodd" fill="rgb(91.20636%, 91.151428%, 90.618896%)" fill-opacity="1" d="M 1325.589844 1096.359375 C 1565.820312 928.519531 2051.140625 898.121094 2068.828125 1289.320312 C 2078.378906 1291 2087.949219 1292.601562 2097.519531 1294.128906 C 2126.140625 1298.710938 2154.859375 1302.640625 2183.660156 1305.910156 C 2183.519531 1284.171875 2181.140625 1262.5 2176.550781 1241.25 L 2299.179688 1139.011719 L 2264.96875 1037.109375 L 2126.75 1086.539062 C 2103.058594 1044.179688 2068.730469 1008.710938 2027.160156 983.621094 L 2085.089844 859.378906 L 1982.109375 815.371094 L 1868.960938 922.351562 C 1812.441406 914 1754.980469 914.339844 1698.558594 923.359375 L 1666.71875 817.058594 L 1534.601562 855.660156 L 1490.898438 984.640625 C 1429.480469 1010.398438 1370.800781 1042.269531 1315.769531 1079.769531 L 1320.679688 1088.058594 L 1325.589844 1096.359375 "/>
<g clip-path="url(#clip-0)">
<g clip-path="url(#clip-1)">
<path fill-rule="nonzero" fill="url(#linear-pattern-0)" d="M 977.089844 2182.628906 L 2007.589844 2182.628906 L 2007.589844 1795.179688 L 977.089844 1795.179688 Z M 977.089844 2182.628906 "/>
</g>
</g>
<path fill-rule="nonzero" fill="rgb(100%, 100%, 100%)" fill-opacity="1" d="M 1091.421875 1641.570312 L 1081.769531 1550.078125 L 1046.910156 1550.078125 L 989.03125 1641.570312 L 1020.460938 1641.570312 L 1028.648438 1627.171875 L 1059.261719 1627.171875 L 1059.988281 1641.570312 Z M 1058.519531 1608.101562 L 1039.578125 1608.101562 L 1057.179688 1577.238281 Z M 1205.480469 1604.128906 L 1219.71875 1550.078125 L 1191.589844 1550.078125 L 1176.941406 1605.628906 C 1176.371094 1607.828125 1175.378906 1609.910156 1174 1611.878906 C 1172.609375 1613.839844 1170.910156 1615.578125 1168.910156 1617.078125 C 1166.921875 1618.589844 1164.75 1619.78125 1162.421875 1620.648438 C 1160.078125 1621.519531 1157.679688 1621.960938 1155.210938 1621.960938 C 1152.738281 1621.960938 1150.539062 1621.519531 1148.621094 1620.648438 C 1146.699219 1619.78125 1145.140625 1618.589844 1143.929688 1617.078125 C 1142.730469 1615.578125 1141.949219 1613.839844 1141.601562 1611.878906 C 1141.25 1609.910156 1141.371094 1607.828125 1141.941406 1605.628906 L 1156.589844 1550.078125 L 1128.449219 1550.078125 L 1114.171875 1604.261719 C 1112.671875 1609.929688 1112.398438 1615.210938 1113.359375 1620.101562 C 1114.308594 1625 1116.351562 1629.230469 1119.480469 1632.789062 C 1122.609375 1636.359375 1126.699219 1639.171875 1131.738281 1641.230469 C 1136.78125 1643.28125 1142.640625 1644.308594 1149.320312 1644.308594 C 1156 1644.308594 1162.398438 1643.28125 1168.519531 1641.230469 C 1174.648438 1639.171875 1180.199219 1636.328125 1185.179688 1632.71875 C 1190.148438 1629.109375 1194.410156 1624.859375 1197.941406 1619.96875 C 1201.46875 1615.078125 1203.980469 1609.789062 1205.480469 1604.128906 Z M 1304.570312 1571.890625 L 1310.359375 1549.949219 L 1239.121094 1549.949219 L 1233.300781 1572.03125 L 1255.160156 1571.890625 L 1236.789062 1641.570312 L 1264.519531 1641.570312 L 1282.890625 1571.890625 L 1304.539062 1572.03125 Z M 1410.390625 1595.890625 C 1412.25 1588.851562 1412.679688 1582.359375 1411.679688 1576.421875 C 1410.691406 1570.46875 1408.519531 1565.351562 1405.160156 1561.050781 C 1401.808594 1556.761719 1397.410156 1553.398438 1391.96875 1550.96875 C 1386.519531 1548.550781 1380.28125 1547.339844 1373.230469 1547.339844 C 1366.089844 1547.339844 1359.160156 1548.550781 1352.441406 1550.96875 C 1345.71875 1553.398438 1339.550781 1556.761719 1333.929688 1561.050781 C 1328.308594 1565.351562 1323.441406 1570.46875 1319.308594 1576.421875 C 1315.179688 1582.359375 1312.191406 1588.851562 1310.328125 1595.890625 C 1308.480469 1602.929688 1308.050781 1609.398438 1309.058594 1615.300781 C 1310.070312 1621.199219 1312.25 1626.300781 1315.601562 1630.601562 C 1318.949219 1634.890625 1323.351562 1638.25 1328.789062 1640.679688 C 1334.238281 1643.101562 1340.53125 1644.308594 1347.671875 1644.308594 C 1354.710938 1644.308594 1361.601562 1643.101562 1368.320312 1640.679688 C 1375.050781 1638.25 1381.21875 1634.890625 1386.828125 1630.601562 C 1392.449219 1626.300781 1397.320312 1621.199219 1401.429688 1615.300781 C 1405.550781 1609.398438 1408.539062 1602.929688 1410.390625 1595.890625 Z M 1382.261719 1595.890625 C 1381.339844 1599.371094 1380.011719 1602.691406 1378.261719 1605.839844 C 1376.511719 1608.988281 1374.441406 1611.761719 1372.019531 1614.140625 C 1369.609375 1616.519531 1366.851562 1618.410156 1363.730469 1619.828125 C 1360.609375 1621.25 1357.21875 1621.960938 1353.558594 1621.960938 C 1349.808594 1621.960938 1346.75 1621.25 1344.378906 1619.828125 C 1342.011719 1618.410156 1340.21875 1616.519531 1339.011719 1614.140625 C 1337.808594 1611.761719 1337.191406 1608.988281 1337.148438 1605.839844 C 1337.121094 1602.691406 1337.550781 1599.371094 1338.46875 1595.890625 C 1339.390625 1592.421875 1340.699219 1589.101562 1342.398438 1585.949219 C 1344.101562 1582.800781 1346.179688 1580.011719 1348.648438 1577.578125 C 1351.121094 1575.160156 1353.910156 1573.238281 1357.03125 1571.820312 C 1360.148438 1570.398438 1363.589844 1569.699219 1367.339844 1569.699219 C 1371 1569.699219 1374.011719 1570.398438 1376.378906 1571.820312 C 1378.761719 1573.238281 1380.511719 1575.160156 1381.660156 1577.578125 C 1382.808594 1580.011719 1383.421875 1582.800781 1383.5 1585.949219 C 1383.589844 1589.101562 1383.171875 1592.421875 1382.261719 1595.890625 Z M 1528.890625 1641.570312 L 1553.011719 1550.078125 L 1516.359375 1550.078125 L 1485.929688 1598.359375 L 1481.359375 1550.078125 L 1444.300781 1550.078125 L 1420.191406 1641.570312 L 1447.910156 1641.570312 L 1462.410156 1586.570312 L 1468.359375 1641.570312 L 1480.710938 1641.570312 L 1516.078125 1586.570312 L 1501.578125 1641.570312 Z M 1662.960938 1595.890625 C 1664.808594 1588.851562 1665.25 1582.359375 1664.25 1576.421875 C 1663.25 1570.46875 1661.078125 1565.351562 1657.730469 1561.050781 C 1654.378906 1556.761719 1649.980469 1553.398438 1644.53125 1550.96875 C 1639.089844 1548.550781 1632.839844 1547.339844 1625.800781 1547.339844 C 1618.660156 1547.339844 1611.730469 1548.550781 1605.011719 1550.96875 C 1598.28125 1553.398438 1592.109375 1556.761719 1586.5 1561.050781 C 1580.878906 1565.351562 1576.011719 1570.46875 1571.878906 1576.421875 C 1567.75 1582.359375 1564.761719 1588.851562 1562.898438 1595.890625 C 1561.050781 1602.929688 1560.621094 1609.398438 1561.628906 1615.300781 C 1562.640625 1621.199219 1564.808594 1626.300781 1568.171875 1630.601562 C 1571.519531 1634.890625 1575.910156 1638.25 1581.359375 1640.679688 C 1586.808594 1643.101562 1593.101562 1644.308594 1600.238281 1644.308594 C 1607.28125 1644.308594 1614.171875 1643.101562 1620.890625 1640.679688 C 1627.609375 1638.25 1633.78125 1634.890625 1639.398438 1630.601562 C 1645.019531 1626.300781 1649.878906 1621.199219 1654 1615.300781 C 1658.121094 1609.398438 1661.101562 1602.929688 1662.960938 1595.890625 Z M 1634.820312 1595.890625 C 1633.910156 1599.371094 1632.578125 1602.691406 1630.828125 1605.839844 C 1629.078125 1608.988281 1627 1611.761719 1624.589844 1614.140625 C 1622.179688 1616.519531 1619.410156 1618.410156 1616.300781 1619.828125 C 1613.179688 1621.25 1609.789062 1621.960938 1606.128906 1621.960938 C 1602.378906 1621.960938 1599.320312 1621.25 1596.949219 1619.828125 C 1594.570312 1618.410156 1592.789062 1616.519531 1591.578125 1614.140625 C 1590.378906 1611.761719 1589.761719 1608.988281 1589.71875 1605.839844 C 1589.679688 1602.691406 1590.121094 1599.371094 1591.039062 1595.890625 C 1591.949219 1592.421875 1593.261719 1589.101562 1594.960938 1585.949219 C 1596.660156 1582.800781 1598.75 1580.011719 1601.21875 1577.578125 C 1603.691406 1575.160156 1606.480469 1573.238281 1609.601562 1571.820312 C 1612.71875 1570.398438 1616.148438 1569.699219 1619.898438 1569.699219 C 1623.558594 1569.699219 1626.578125 1570.398438 1628.949219 1571.820312 C 1631.320312 1573.238281 1633.078125 1575.160156 1634.230469 1577.578125 C 1635.371094 1580.011719 1635.988281 1582.800781 1636.070312 1585.949219 C 1636.148438 1589.101562 1635.738281 1592.421875 1634.820312 1595.890625 Z M 1752.328125 1571.890625 L 1758.121094 1549.949219 L 1686.890625 1549.949219 L 1681.058594 1572.03125 L 1702.921875 1571.890625 L 1684.558594 1641.570312 L 1712.28125 1641.570312 L 1730.648438 1571.890625 L 1752.300781 1572.03125 Z M 1781.191406 1641.570312 L 1805.308594 1550.078125 L 1777.578125 1550.078125 L 1753.46875 1641.570312 Z M 1924.589844 1550.078125 L 1893.160156 1550.078125 L 1857.160156 1611.671875 L 1853.628906 1550.078125 L 1822.199219 1550.078125 L 1831.851562 1641.570312 L 1866.710938 1641.570312 Z M 1986.820312 1641.570312 L 1992.601562 1619.621094 L 1950.878906 1619.621094 L 1954.601562 1605.5 L 1995.328125 1605.628906 L 2000.75 1585.058594 L 1959.988281 1585.058594 L 1963.460938 1571.890625 L 2005.148438 1572.03125 L 2010.96875 1549.949219 L 1941.519531 1549.949219 L 1917.371094 1641.570312 L 1986.820312 1641.570312 "/>
</svg>
